<svg width="2218" height="2368" viewBox="0 0 2218 2368" fill="none" xmlns="http://www.w3.org/2000/svg">
<g opacity="0.4">
<path d="M352.377 -567.06L33.1792 -104.223C-102.73 92.6714 -36.6896 364.034 174.497 476.457L796.929 807.801C960.661 894.962 1023.15 1098.07 936.73 1262.19C825.373 1473.68 963.506 1730.65 1201.33 1754.43L1353.93 1769.69C1481.12 1782.41 1607.57 1739.21 1700.4 1651.33L2272.96 1109.31C2436.96 954.051 2512.35 726.998 2473.78 504.479L2442.2 322.242C2399.07 73.4319 2169.74 -98.8339 1918.77 -70.9476C1671.98 -43.5275 1445.24 -210.257 1397.23 -453.871C1346.52 -711.179 1098.17 -880.391 840.275 -832.748L731.452 -812.644C577.557 -784.214 441.227 -695.892 352.377 -567.06Z" stroke="url(#paint0_diamond_365_2118)" stroke-linecap="round"/>
<path d="M301.006 -523.587L6.46847 -44.6785C-118.95 159.059 -38.7979 426.593 177.983 527.809L816.903 826.124C984.972 904.596 1058.01 1104.15 980.294 1272.58C880.158 1489.6 1031.55 1738.99 1270.29 1750.29L1423.48 1757.54C1551.17 1763.59 1675.18 1713.83 1763.28 1621.22L2306.69 1049.97C2462.34 886.341 2525.75 655.653 2475.58 435.458L2434.5 255.124C2378.41 8.91168 2140.38 -151.116 1891.21 -110.133C1646.2 -69.8348 1411.05 -224.469 1350.35 -465.236C1286.24 -719.538 1029.38 -875.52 774.33 -814.445L666.709 -788.674C514.512 -752.228 382.991 -656.892 301.006 -523.587Z" stroke="url(#paint1_diamond_365_2118)" stroke-linecap="round"/>
<path d="M251.989 -477.485L-17.0809 16.1818C-131.665 226.204 -37.6208 489.177 184.16 578.909L837.817 843.376C1009.76 912.945 1093.14 1108.41 1024.35 1280.66C935.709 1502.63 1099.95 1743.75 1338.95 1742.55L1492.31 1741.77C1620.14 1741.12 1741.37 1684.95 1824.51 1587.85L2337.28 988.944C2484.15 817.394 2535.4 583.705 2473.78 366.437L2423.32 188.5C2354.42 -54.4394 2108.34 -201.79 1861.65 -147.823C1619.09 -94.7572 1376.16 -236.873 1302.95 -474.133C1225.62 -724.731 960.943 -867.056 709.442 -792.717L603.317 -761.348C453.237 -716.987 326.885 -614.899 251.989 -477.485Z" stroke="url(#paint2_diamond_365_2118)" stroke-linecap="round"/>
<path d="M205.446 -428.879L-37.4185 78.1928C-140.854 293.924 -33.1756 551.615 192.998 629.616L859.6 859.511C1034.95 919.986 1128.44 1110.82 1068.76 1286.44C991.86 1512.74 1168.49 1744.94 1407.11 1731.22L1560.21 1722.42C1687.83 1715.09 1805.96 1652.65 1883.9 1551.32L2364.62 926.405C2502.32 747.403 2541.26 511.352 2468.36 297.606L2408.65 122.554C2327.13 -116.446 2073.68 -250.716 1830.16 -183.912C1590.7 -118.225 1340.67 -247.432 1255.14 -480.535C1164.8 -726.742 893.04 -855.02 645.774 -767.62L541.436 -730.74C393.883 -678.586 273.048 -570.024 205.446 -428.879Z" stroke="url(#paint3_diamond_365_2118)" stroke-linecap="round"/>
<path d="M161.514 -377.906L-54.4797 141.182C-146.482 362.03 -25.4656 613.732 204.48 679.79L882.2 874.483C1060.48 925.697 1163.83 1111.37 1113.42 1289.88C1048.47 1519.89 1237.01 1742.53 1474.58 1716.34L1627.01 1699.54C1754.07 1685.54 1868.78 1617 1941.31 1511.74L2388.66 862.518C2516.8 676.555 2543.34 438.789 2459.35 229.152L2390.56 57.4646C2296.65 -176.942 2036.51 -297.763 1796.82 -218.306C1561.13 -140.176 1304.68 -256.12 1207.07 -484.428C1103.97 -725.57 825.863 -839.449 583.51 -739.228L481.245 -696.938C336.624 -637.132 221.636 -522.396 161.514 -377.906Z" stroke="url(#paint4_diamond_365_2118)" stroke-linecap="round"/>
<path d="M120.302 -324.703L-68.228 204.978C-148.546 430.339 -14.5223 675.362 218.566 729.295L905.546 888.252C1086.26 930.066 1199.19 1110.08 1158.19 1290.98C1105.36 1524.08 1305.3 1736.54 1541.17 1697.96L1692.52 1673.2C1818.67 1652.57 1929.63 1578.12 1996.55 1469.21L2409.32 797.461C2527.55 605.046 2541.61 366.218 2446.76 161.264L2369.08 -6.58809C2263.03 -235.758 1996.93 -342.8 1761.72 -250.907C1530.45 -160.549 1268.28 -262.913 1158.85 -485.799C1043.27 -721.214 759.586 -820.382 522.811 -707.615L422.899 -660.031C281.606 -592.738 172.78 -472.141 120.302 -324.703Z" stroke="url(#paint5_diamond_365_2118)" stroke-linecap="round"/>
<path d="M81.9342 -269.416L-78.6165 269.406C-147.03 498.662 -0.366312 736.335 235.225 777.995L929.583 900.78C1112.24 933.079 1234.43 1106.93 1202.96 1289.73C1162.4 1525.28 1373.18 1726.98 1606.72 1676.11L1756.56 1643.47C1881.46 1616.26 1988.37 1536.11 2049.5 1423.84L2426.54 731.412C2534.54 533.074 2536.08 293.837 2430.63 94.1276L2344.28 -69.4289C2226.38 -292.734 1955.04 -385.703 1724.96 -281.626C1498.74 -179.288 1231.57 -267.79 1110.63 -484.644C982.885 -713.688 694.399 -797.874 463.851 -672.869L366.566 -620.121C228.989 -545.526 126.624 -419.398 81.9342 -269.416Z" stroke="url(#paint6_diamond_365_2118)" stroke-linecap="round"/>
<path d="M46.5094 -212.196L-85.6216 334.29C-141.943 566.812 16.9585 796.484 254.407 825.757L954.24 912.034C1138.33 934.73 1269.46 1101.95 1247.6 1286.14C1219.42 1523.49 1440.47 1713.89 1671.02 1650.86L1818.95 1610.42C1942.26 1576.71 2044.82 1491.08 2100 1375.76L2440.28 664.554C2537.76 460.835 2526.77 221.845 2411.02 27.9281L2316.22 -130.885C2186.79 -347.714 1910.96 -426.354 1686.65 -310.378C1466.09 -196.341 1194.65 -270.74 1062.53 -480.967C922.974 -703.011 630.478 -771.983 406.787 -635.084L312.397 -577.317C178.912 -495.624 83.2884 -364.312 46.5094 -212.196Z" stroke="url(#paint7_diamond_365_2118)" stroke-linecap="round"/>
<path d="M14.1405 -153.203L-89.2085 399.449C-133.284 634.6 37.4204 855.641 276.076 872.447L979.465 921.98C1164.49 935.009 1304.19 1095.14 1292 1280.22C1276.29 1518.72 1507 1697.29 1733.93 1622.28L1879.54 1574.15C2000.91 1534.04 2098.86 1443.15 2147.92 1325.11L2450.52 597.065C2537.2 388.523 2513.72 150.436 2387.97 -37.1569L2285 -190.791C2144.4 -400.549 1864.83 -464.646 1646.89 -337.089C1432.6 -211.665 1157.65 -271.756 1014.7 -474.78C863.716 -689.216 568.012 -742.786 351.792 -594.367L260.555 -531.739C131.528 -443.172 42.908 -307.035 14.1405 -153.203Z" stroke="url(#paint8_diamond_365_2118)" stroke-linecap="round"/>
<path d="M-15.1054 -92.5947L-89.3892 464.709C-121.097 701.845 60.9414 913.649 300.149 917.941L1005.17 930.593C1190.62 933.921 1338.51 1086.52 1336.02 1271.99C1332.81 1510.98 1572.55 1677.23 1795.25 1590.45L1938.14 1534.77C2057.25 1488.36 2150.3 1392.47 2193.12 1272.02L2457.2 529.134C2532.84 316.343 2496.94 79.8108 2361.55 -100.945L2250.67 -248.978C2099.29 -451.091 1816.75 -500.468 1605.79 -361.681C1398.35 -225.213 1120.63 -270.832 967.252 -466.096C805.254 -672.337 507.15 -710.357 298.995 -550.825L211.16 -483.508C86.9458 -388.31 5.57169 -247.722 -15.1054 -92.5947Z" stroke="url(#paint9_diamond_365_2118)" stroke-linecap="round"/>
<path d="M-41.1408 -30.5389L-86.1558 529.889C-105.41 768.359 87.4645 970.345 326.569 962.113L1031.28 937.85C1216.66 931.467 1372.33 1076.12 1379.55 1261.46C1388.85 1500.29 1636.96 1653.77 1854.82 1555.45L1994.6 1492.37C2111.11 1439.79 2199.02 1339.16 2235.48 1216.64L2460.32 460.947C2524.72 244.488 2476.48 10.1601 2331.82 -163.262L2213.35 -305.29C2051.59 -499.202 1766.86 -533.725 1563.45 -384.087C1363.44 -236.95 1083.71 -267.971 920.323 -454.941C747.752 -652.421 448.068 -674.787 248.547 -504.58L164.356 -432.759C45.294 -331.19 -28.6108 -186.536 -41.1408 -30.5389Z" stroke="url(#paint10_diamond_365_2118)" stroke-linecap="round"/>
<path d="M-63.8847 32.7935L-79.5075 594.809C-86.2544 833.96 116.927 1025.58 355.273 1004.84L1057.75 943.729C1242.54 927.653 1405.57 1063.96 1422.48 1248.67C1444.27 1486.69 1700.07 1626.97 1912.48 1517.38L2048.77 1447.07C2162.37 1388.46 2244.89 1283.37 2274.88 1159.11L2459.87 392.69C2512.85 173.157 2452.42 -58.3255 2298.88 -223.939L2173.13 -359.572C2001.45 -544.753 1715.3 -564.327 1520 -404.248C1327.97 -246.845 1047 -263.184 874.05 -441.346C691.381 -629.524 390.936 -636.175 200.597 -455.759L120.28 -379.63C6.6968 -271.969 -59.5361 -123.645 -63.8847 32.7935Z" stroke="url(#paint11_diamond_365_2118)" stroke-linecap="round"/>
<path d="M-83.2863 97.2316L-69.4741 659.294C-63.6955 898.471 149.235 1079.19 386.17 1046.01L1084.49 948.216C1268.18 922.492 1438.12 1050.08 1464.67 1233.65C1498.89 1470.2 1761.68 1596.9 1968.07 1476.35L2100.49 1399C2210.87 1334.53 2287.78 1225.26 2311.22 1099.6L2455.84 324.552C2497.27 102.547 2424.8 -125.456 2262.8 -282.806L2130.13 -411.672C1948.99 -587.614 1662.21 -592.185 1475.56 -422.105C1292.02 -254.868 1010.58 -256.479 828.548 -425.346C636.281 -603.706 335.9 -594.624 155.264 -404.494L79.0411 -324.265C-28.7516 -210.807 -87.131 -59.2203 -83.2863 97.2316Z" stroke="url(#paint12_diamond_365_2118)" stroke-linecap="round"/>
<path d="M-99.2898 162.595L-56.0804 723.165C-37.7922 961.711 184.305 1131.04 419.178 1085.5L1111.42 951.298C1293.52 915.994 1469.9 1034.51 1506.02 1216.45C1552.57 1450.88 1821.64 1563.65 2021.43 1432.47L2149.62 1348.29C2256.48 1278.13 2327.56 1164.99 2344.4 1038.27L2448.26 256.717C2478 32.8478 2393.7 -191.05 2223.69 -339.706L2084.46 -461.452C1894.36 -627.673 1607.73 -617.229 1430.24 -437.613C1255.71 -260.999 974.568 -247.879 783.946 -406.988C582.607 -575.04 283.113 -550.25 112.675 -350.927L40.7558 -266.819C-60.9512 -147.875 -111.317 6.55922 -99.2898 162.595Z" stroke="url(#paint13_diamond_365_2118)" stroke-linecap="round"/>
<path d="M-111.846 228.707L-39.3577 786.247C-8.61009 1023.51 222.045 1180.98 454.213 1123.22L1138.48 952.964C1318.48 908.179 1500.82 1017.3 1546.42 1197.1C1605.18 1428.77 1879.78 1527.31 2072.43 1385.85L2196.04 1295.08C2299.08 1219.42 2364.14 1102.72 2374.32 975.292L2437.13 189.371C2455.13 -35.7483 2359.22 -254.927 2181.67 -394.482L2036.25 -508.774C1837.71 -664.819 1552.02 -639.387 1384.17 -450.728C1219.12 -265.223 939.058 -237.407 740.369 -386.321C530.512 -543.606 232.726 -503.175 72.953 -295.205L5.53392 -207.449C-89.8087 -83.3449 -132.023 73.5139 -111.846 228.707Z" stroke="url(#paint14_diamond_365_2118)" stroke-linecap="round"/>
<path d="M-120.928 295.384L-19.3596 848.366C23.7633 1083.69 262.343 1228.88 491.17 1159.04L1165.59 953.212C1343 899.068 1530.8 998.499 1585.75 1175.66C1656.55 1403.94 1935.93 1487.97 2120.91 1336.62L2239.6 1239.51C2338.54 1158.56 2397.41 1038.61 2400.91 910.829L2422.5 122.698C2428.69 -103.054 2321.44 -316.913 2136.82 -446.984L1985.63 -553.509C1779.2 -698.949 1495.23 -658.601 1337.48 -461.416C1182.37 -267.526 904.142 -225.091 697.932 -363.402C480.13 -509.489 184.868 -453.529 36.1984 -237.482L-26.5354 -146.317C-115.252 -17.3936 -149.2 141.459 -120.928 295.384Z" stroke="url(#paint15_diamond_365_2118)" stroke-linecap="round"/>
<path d="M-126.515 362.446L3.85459 909.355C59.2344 1142.1 305.086 1274.6 529.944 1192.89L1192.67 952.042C1367 888.687 1559.75 978.153 1623.89 1152.2C1706.54 1376.46 1989.94 1445.75 2166.75 1284.93L2280.19 1181.74C2374.76 1095.73 2427.27 972.857 2424.07 845.066L2404.39 56.885C2398.75 -168.882 2280.46 -376.835 2089.29 -497.066L1932.73 -595.532C1718.97 -729.969 1437.5 -674.814 1290.29 -469.643C1145.53 -267.901 869.91 -210.963 656.744 -338.293C431.595 -472.78 139.666 -401.444 2.50761 -177.912L-55.3691 -83.5892C-137.217 49.8007 -162.804 210.213 -126.515 362.446Z" stroke="url(#paint16_diamond_365_2118)" stroke-linecap="round"/>
<path d="M-128.579 429.71L30.2348 969.046C97.7198 1198.58 350.169 1318.03 570.442 1224.65L1219.65 949.456C1390.43 877.065 1587.6 956.32 1660.76 1126.77C1755.04 1346.4 2041.67 1400.77 2209.82 1230.91L2317.71 1121.92C2407.64 1031.08 2453.65 905.629 2443.77 778.18L2382.86 -7.89034C2365.42 -233.052 2236.41 -434.53 2039.21 -544.591L1877.7 -634.728C1657.2 -757.793 1379 -687.983 1242.73 -475.389C1108.74 -266.348 836.47 -195.063 616.932 -311.062C385.053 -433.581 97.2584 -347.065 -28.0136 -116.661L-80.8745 -19.4381C-155.629 118.053 -172.786 279.584 -128.579 429.71Z" stroke="url(#paint17_diamond_365_2118)" stroke-linecap="round"/>
<path d="M-127.122 496.989L59.7016 1027.27C139.107 1252.96 397.461 1359.03 612.546 1254.26L1246.47 945.462C1413.22 864.232 1614.27 933.06 1696.25 1099.44C1801.89 1313.84 2090.97 1353.13 2250 1174.71L2352.04 1060.22C2437.1 964.797 2476.47 837.113 2459.94 710.356L2357.98 -71.4499C2328.77 -295.39 2189.39 -489.84 1986.7 -589.429L1820.7 -670.991C1594.06 -782.347 1319.9 -698.073 1194.94 -478.638C1072.07 -262.871 803.907 -177.434 578.599 -281.784C340.626 -392 57.7535 -290.54 -55.2885 -53.896L-102.989 45.9603C-170.445 187.175 -179.124 349.383 -127.122 496.989Z" stroke="url(#paint18_diamond_365_2118)" stroke-linecap="round"/>
<path d="M-122.154 564.099L92.166 1083.88C183.274 1305.1 446.826 1397.51 656.132 1281.62L1273.02 940.069C1435.3 850.224 1639.67 908.435 1730.25 1070.3C1846.96 1278.88 2137.71 1302.98 2287.18 1116.48L2383.09 996.813C2463.03 897.065 2495.67 767.495 2472.53 641.777L2329.79 -133.621C2288.9 -355.726 2139.54 -542.615 1931.91 -631.46L1761.87 -704.221C1529.72 -803.564 1260.34 -705.057 1147.04 -479.383C1035.63 -257.481 772.302 -158.126 541.842 -250.541C298.426 -348.152 21.2516 -232.027 -79.2505 10.2092L-121.659 112.425C-181.633 256.977 -181.811 419.416 -122.154 564.099Z" stroke="url(#paint19_diamond_365_2118)" stroke-linecap="round"/>
<path d="M-113.665 630.857L127.565 1138.71C230.126 1354.86 498.153 1433.35 701.107 1306.66L1299.28 933.294C1456.62 835.079 1663.76 882.514 1762.69 1039.42C1890.16 1241.6 2181.77 1250.46 2321.28 1056.38L2410.79 931.864C2485.41 828.068 2511.22 696.968 2481.53 572.633L2298.4 -194.232C2245.95 -413.893 2087.01 -592.708 1875.02 -670.565L1701.4 -734.328C1464.36 -821.383 1200.51 -708.913 1099.17 -477.619C999.531 -250.19 741.767 -137.19 506.786 -217.418C258.596 -302.155 -12.1216 -171.683 -99.8083 75.4809L-136.809 179.776C-189.135 327.268 -180.812 489.495 -113.665 630.857Z" stroke="url(#paint20_diamond_365_2118)" stroke-linecap="round"/>
<path d="M-101.7 697.08L165.778 1191.61C279.511 1402.09 551.278 1466.45 747.325 1329.32L1325.13 925.155C1477.13 818.839 1686.46 855.369 1793.47 1006.88C1931.35 1202.11 2223.02 1195.7 2352.18 994.589L2435.05 865.554C2504.13 757.996 2523.05 625.724 2486.89 503.113L2263.88 -253.116C2200 -469.731 2031.92 -639.983 1816.15 -706.638L1639.43 -761.227C1398.16 -835.758 1140.56 -709.633 1051.46 -473.352C963.86 -241.02 712.364 -114.685 473.506 -182.504C221.221 -254.137 -42.2974 -109.675 -116.928 141.74L-148.42 247.829C-192.955 397.857 -176.153 559.426 -101.7 697.08Z" stroke="url(#paint21_diamond_365_2118)" stroke-linecap="round"/>
<path d="M-86.2885 762.586L206.705 1242.44C331.297 1446.68 606.06 1496.73 794.661 1349.52L1350.52 915.674C1496.75 801.549 1707.71 827.073 1822.49 972.776C1970.4 1160.52 2261.34 1138.85 2379.8 931.261L2455.8 798.066C2519.16 687.04 2531.13 553.959 2488.6 433.409L2226.32 -310.113C2151.19 -523.087 1974.43 -684.31 1755.46 -739.581L1576.13 -784.846C1331.29 -846.648 1080.65 -707.214 1004.04 -466.594C928.715 -229.996 684.175 -90.6712 442.095 -145.897C186.406 -204.227 -69.1899 -46.1719 -130.561 208.804L-156.457 316.395C-193.079 468.549 -167.844 629.017 -86.2885 762.586Z" stroke="url(#paint22_diamond_365_2118)" stroke-linecap="round"/>
<path d="M-67.4607 827.195L250.245 1291.06C385.356 1488.5 662.361 1524.09 843 1367.22L1375.4 904.876C1515.44 783.255 1727.45 797.703 1849.71 937.199C2007.24 1116.95 2296.64 1080.08 2404.07 866.574L2473 729.584C2530.46 615.394 2535.45 481.869 2486.67 363.71L2185.84 -365.067C2099.67 -573.817 1914.71 -725.568 1693.15 -769.303L1511.7 -805.121C1263.96 -854.024 1020.95 -701.664 957.043 -457.364C894.204 -217.148 657.291 -65.2158 412.652 -107.696C154.261 -152.565 -92.7126 18.6506 -140.655 276.489L-160.885 385.288C-189.494 539.15 -155.895 698.077 -67.4607 827.195Z" stroke="url(#paint23_diamond_365_2118)" stroke-linecap="round"/>
<path d="M-45.2844 890.729L296.262 1337.33C441.521 1527.43 720.01 1548.48 892.191 1382.37L1399.66 892.791C1533.15 764.007 1745.63 767.339 1875.01 900.246C2041.74 1071.51 2328.81 1019.54 2424.92 800.705L2486.59 660.294C2537.99 543.254 2535.99 409.651 2481.09 294.206L2142.53 -417.827C2045.55 -621.781 1852.91 -763.644 1629.36 -795.724L1446.28 -821.996C1196.32 -857.867 961.621 -692.997 910.587 -445.687C860.405 -202.511 631.768 -38.3887 385.242 -68.0078C124.857 -99.292 -112.818 84.6148 -147.2 344.609L-161.708 454.318C-182.225 609.466 -140.355 766.417 -45.2844 890.729Z" stroke="url(#paint24_diamond_365_2118)" stroke-linecap="round"/>
<path d="M-19.808 953.017L344.644 1381.13C499.653 1563.37 778.862 1569.81 942.113 1394.92L1423.26 879.453C1549.83 743.859 1762.19 736.067 1898.36 862.02C2073.81 1024.32 2357.78 957.402 2442.3 733.835L2496.54 590.39C2541.74 470.819 2532.75 337.504 2471.89 225.091L2096.52 -468.247C1989 -666.847 1789.2 -798.433 1564.28 -818.769L1380.08 -835.424C1128.58 -858.163 902.832 -681.236 864.811 -431.595C827.425 -186.126 607.691 -10.2621 359.952 -26.9384C98.2867 -44.5521 -129.437 151.542 -150.166 412.978L-158.912 523.296C-171.282 679.306 -121.254 833.85 -19.808 953.017Z" stroke="url(#paint25_diamond_365_2118)" stroke-linecap="round"/>
<path d="M8.8923 1013.89L395.25 1422.34C559.585 1596.21 838.748 1588.04 992.622 1404.84L1446.14 864.898C1565.43 722.866 1777.09 703.97 1919.66 822.625C2103.38 975.519 2383.45 893.831 2456.16 666.148L2502.81 520.06C2541.7 398.288 2525.74 265.626 2459.08 156.552L2047.94 -516.191C1930.17 -708.891 1723.76 -829.84 1498.08 -838.377L1313.26 -845.369C1060.92 -854.914 844.738 -666.415 819.834 -415.126C795.346 -168.037 585.117 19.0861 336.845 15.3983C74.6165 11.5032 -142.533 219.246 -149.55 481.41L-152.511 592.034C-156.699 748.477 -98.6516 900.192 8.8923 1013.89Z" stroke="url(#paint26_diamond_365_2118)" stroke-linecap="round"/>
<path d="M40.7288 1073.17L447.934 1460.84C621.143 1625.88 899.496 1603.1 1043.57 1412.1L1468.21 849.166C1579.91 701.085 1790.29 671.138 1938.87 782.168C2130.33 925.238 2405.75 829.004 2466.44 597.828L2505.38 449.499C2537.84 325.858 2514.96 194.214 2442.69 88.7774L1996.9 -561.526C1869.21 -747.799 1656.75 -857.779 1430.94 -854.493L1246 -851.802C993.508 -848.129 787.488 -648.574 775.77 -396.325C764.248 -148.293 564.1 49.5756 315.975 58.8864C53.9023 68.7206 -152.077 287.544 -145.364 549.715L-142.531 660.343C-138.526 816.791 -72.6179 965.259 40.7288 1073.17Z" stroke="url(#paint27_diamond_365_2118)" stroke-linecap="round"/>
<path d="M75.6366 1130.71L502.573 1496.53C684.182 1652.28 960.961 1614.97 1094.84 1416.69L1489.43 832.301C1593.23 678.577 1801.76 637.66 1955.95 740.762C2154.64 873.616 2424.63 763.1 2473.15 529.064L2504.27 378.9C2530.22 253.73 2500.48 123.463 2422.78 21.9543L1943.58 -604.127C1806.31 -783.462 1588.38 -882.172 1363.05 -867.073L1178.51 -854.707C926.557 -837.824 731.264 -627.76 732.763 -375.244C734.237 -126.949 544.72 81.1238 297.422 103.408C36.2232 126.944 -158.022 356.248 -137.597 617.708L-128.978 728.036C-116.79 884.06 -43.2024 1028.88 75.6366 1130.71Z" stroke="url(#paint28_diamond_365_2118)" stroke-linecap="round"/>
<path d="M113.499 1186.34L558.996 1529.32C748.508 1675.35 1022.95 1623.6 1146.28 1418.58L1509.74 814.348C1605.35 655.402 1811.45 603.628 1970.83 698.518C2176.19 820.791 2440.04 696.297 2476.24 460.042L2499.46 308.455C2518.82 182.099 2482.3 53.567 2399.4 -43.7366L1888.09 -643.88C1741.62 -815.786 1518.83 -902.954 1294.6 -876.083L1110.96 -854.076C860.229 -824.03 676.197 -604.033 690.91 -351.942C705.377 -104.064 527.009 113.642 281.216 148.838C21.6072 186.012 -160.371 425.167 -126.29 685.201L-111.909 794.927C-91.5718 950.099 -10.5061 1090.86 113.499 1186.34Z" stroke="url(#paint29_diamond_365_2118)" stroke-linecap="round"/>
<path d="M154.223 1239.91L617.06 1559.1C813.955 1695.01 1085.32 1628.97 1197.74 1417.79L1529.08 795.356C1616.24 631.624 1819.35 569.134 1983.48 655.554C2194.96 766.911 2451.93 628.778 2475.71 390.953L2490.97 238.358C2503.69 111.162 2460.5 -15.2823 2372.62 -108.114L1830.59 -680.675C1675.33 -844.679 1448.28 -920.069 1225.76 -881.499L1043.53 -849.911C794.715 -806.784 622.449 -577.457 650.336 -326.481C677.756 -79.7001 511.026 147.043 267.412 195.054C10.1044 245.764 -159.108 494.116 -111.465 752.009L-91.3607 860.832C-62.9304 1014.73 25.3914 1151.06 154.223 1239.91Z" stroke="url(#paint30_diamond_365_2118)" stroke-linecap="round"/>
</g>
<defs>
<radialGradient id="paint0_diamond_365_2118" cx="0" cy="0" r="1" gradientUnits="userSpaceOnUse" gradientTransform="translate(1156.79 435.501) rotate(90) scale(1354.22 1378.75)">
<stop stop-color="#2F5DFF"/>
<stop offset="1" stop-color="#2F5DFF" stop-opacity="0"/>
</radialGradient>
<radialGradient id="paint1_diamond_365_2118" cx="0" cy="0" r="1" gradientUnits="userSpaceOnUse" gradientTransform="translate(1156.78 435.5) rotate(87) scale(1354.22 1378.75)">
<stop stop-color="#2F5DFF"/>
<stop offset="1" stop-color="#2F5DFF" stop-opacity="0"/>
</radialGradient>
<radialGradient id="paint2_diamond_365_2118" cx="0" cy="0" r="1" gradientUnits="userSpaceOnUse" gradientTransform="translate(1156.79 435.5) rotate(84) scale(1354.22 1378.75)">
<stop stop-color="#2F5DFF"/>
<stop offset="1" stop-color="#2F5DFF" stop-opacity="0"/>
</radialGradient>
<radialGradient id="paint3_diamond_365_2118" cx="0" cy="0" r="1" gradientUnits="userSpaceOnUse" gradientTransform="translate(1156.79 435.501) rotate(81) scale(1354.22 1378.75)">
<stop stop-color="#2F5DFF"/>
<stop offset="1" stop-color="#2F5DFF" stop-opacity="0"/>
</radialGradient>
<radialGradient id="paint4_diamond_365_2118" cx="0" cy="0" r="1" gradientUnits="userSpaceOnUse" gradientTransform="translate(1156.79 435.5) rotate(78) scale(1354.22 1378.75)">
<stop stop-color="#2F5DFF"/>
<stop offset="1" stop-color="#2F5DFF" stop-opacity="0"/>
</radialGradient>
<radialGradient id="paint5_diamond_365_2118" cx="0" cy="0" r="1" gradientUnits="userSpaceOnUse" gradientTransform="translate(1156.78 435.5) rotate(75) scale(1354.22 1378.75)">
<stop stop-color="#2F5DFF"/>
<stop offset="1" stop-color="#2F5DFF" stop-opacity="0"/>
</radialGradient>
<radialGradient id="paint6_diamond_365_2118" cx="0" cy="0" r="1" gradientUnits="userSpaceOnUse" gradientTransform="translate(1156.78 435.5) rotate(72) scale(1354.22 1378.75)">
<stop stop-color="#2F5DFF"/>
<stop offset="1" stop-color="#2F5DFF" stop-opacity="0"/>
</radialGradient>
<radialGradient id="paint7_diamond_365_2118" cx="0" cy="0" r="1" gradientUnits="userSpaceOnUse" gradientTransform="translate(1156.77 435.501) rotate(69) scale(1354.22 1378.75)">
<stop stop-color="#2F5DFF"/>
<stop offset="1" stop-color="#2F5DFF" stop-opacity="0"/>
</radialGradient>
<radialGradient id="paint8_diamond_365_2118" cx="0" cy="0" r="1" gradientUnits="userSpaceOnUse" gradientTransform="translate(1156.78 435.499) rotate(66) scale(1354.22 1378.75)">
<stop stop-color="#2F5DFF"/>
<stop offset="1" stop-color="#2F5DFF" stop-opacity="0"/>
</radialGradient>
<radialGradient id="paint9_diamond_365_2118" cx="0" cy="0" r="1" gradientUnits="userSpaceOnUse" gradientTransform="translate(1156.78 435.499) rotate(63) scale(1354.22 1378.75)">
<stop stop-color="#2F5DFF"/>
<stop offset="1" stop-color="#2F5DFF" stop-opacity="0"/>
</radialGradient>
<radialGradient id="paint10_diamond_365_2118" cx="0" cy="0" r="1" gradientUnits="userSpaceOnUse" gradientTransform="translate(1156.78 435.5) rotate(60) scale(1354.22 1378.75)">
<stop stop-color="#2F5DFF"/>
<stop offset="1" stop-color="#2F5DFF" stop-opacity="0"/>
</radialGradient>
<radialGradient id="paint11_diamond_365_2118" cx="0" cy="0" r="1" gradientUnits="userSpaceOnUse" gradientTransform="translate(1156.78 435.499) rotate(57) scale(1354.22 1378.75)">
<stop stop-color="#2F5DFF"/>
<stop offset="1" stop-color="#2F5DFF" stop-opacity="0"/>
</radialGradient>
<radialGradient id="paint12_diamond_365_2118" cx="0" cy="0" r="1" gradientUnits="userSpaceOnUse" gradientTransform="translate(1156.78 435.501) rotate(54) scale(1354.22 1378.75)">
<stop stop-color="#2F5DFF"/>
<stop offset="1" stop-color="#2F5DFF" stop-opacity="0"/>
</radialGradient>
<radialGradient id="paint13_diamond_365_2118" cx="0" cy="0" r="1" gradientUnits="userSpaceOnUse" gradientTransform="translate(1156.78 435.501) rotate(51) scale(1354.22 1378.75)">
<stop stop-color="#2F5DFF"/>
<stop offset="1" stop-color="#2F5DFF" stop-opacity="0"/>
</radialGradient>
<radialGradient id="paint14_diamond_365_2118" cx="0" cy="0" r="1" gradientUnits="userSpaceOnUse" gradientTransform="translate(1156.79 435.5) rotate(48) scale(1354.22 1378.75)">
<stop stop-color="#2F5DFF"/>
<stop offset="1" stop-color="#2F5DFF" stop-opacity="0"/>
</radialGradient>
<radialGradient id="paint15_diamond_365_2118" cx="0" cy="0" r="1" gradientUnits="userSpaceOnUse" gradientTransform="translate(1156.79 435.498) rotate(45) scale(1354.22 1378.75)">
<stop stop-color="#2F5DFF"/>
<stop offset="1" stop-color="#2F5DFF" stop-opacity="0"/>
</radialGradient>
<radialGradient id="paint16_diamond_365_2118" cx="0" cy="0" r="1" gradientUnits="userSpaceOnUse" gradientTransform="translate(1156.79 435.498) rotate(42) scale(1354.22 1378.75)">
<stop stop-color="#2F5DFF"/>
<stop offset="1" stop-color="#2F5DFF" stop-opacity="0"/>
</radialGradient>
<radialGradient id="paint17_diamond_365_2118" cx="0" cy="0" r="1" gradientUnits="userSpaceOnUse" gradientTransform="translate(1156.79 435.499) rotate(39) scale(1354.22 1378.75)">
<stop stop-color="#2F5DFF"/>
<stop offset="1" stop-color="#2F5DFF" stop-opacity="0"/>
</radialGradient>
<radialGradient id="paint18_diamond_365_2118" cx="0" cy="0" r="1" gradientUnits="userSpaceOnUse" gradientTransform="translate(1156.79 435.499) rotate(36) scale(1354.22 1378.75)">
<stop stop-color="#2F5DFF"/>
<stop offset="1" stop-color="#2F5DFF" stop-opacity="0"/>
</radialGradient>
<radialGradient id="paint19_diamond_365_2118" cx="0" cy="0" r="1" gradientUnits="userSpaceOnUse" gradientTransform="translate(1156.78 435.499) rotate(33) scale(1354.22 1378.75)">
<stop stop-color="#2F5DFF"/>
<stop offset="1" stop-color="#2F5DFF" stop-opacity="0"/>
</radialGradient>
<radialGradient id="paint20_diamond_365_2118" cx="0" cy="0" r="1" gradientUnits="userSpaceOnUse" gradientTransform="translate(1156.78 435.499) rotate(30) scale(1354.22 1378.75)">
<stop stop-color="#2F5DFF"/>
<stop offset="1" stop-color="#2F5DFF" stop-opacity="0"/>
</radialGradient>
<radialGradient id="paint21_diamond_365_2118" cx="0" cy="0" r="1" gradientUnits="userSpaceOnUse" gradientTransform="translate(1156.78 435.499) rotate(27) scale(1354.22 1378.75)">
<stop stop-color="#2F5DFF"/>
<stop offset="1" stop-color="#2F5DFF" stop-opacity="0"/>
</radialGradient>
<radialGradient id="paint22_diamond_365_2118" cx="0" cy="0" r="1" gradientUnits="userSpaceOnUse" gradientTransform="translate(1156.78 435.5) rotate(24) scale(1354.22 1378.75)">
<stop stop-color="#2F5DFF"/>
<stop offset="1" stop-color="#2F5DFF" stop-opacity="0"/>
</radialGradient>
<radialGradient id="paint23_diamond_365_2118" cx="0" cy="0" r="1" gradientUnits="userSpaceOnUse" gradientTransform="translate(1156.78 435.5) rotate(21) scale(1354.22 1378.75)">
<stop stop-color="#2F5DFF"/>
<stop offset="1" stop-color="#2F5DFF" stop-opacity="0"/>
</radialGradient>
<radialGradient id="paint24_diamond_365_2118" cx="0" cy="0" r="1" gradientUnits="userSpaceOnUse" gradientTransform="translate(1156.78 435.499) rotate(18) scale(1354.22 1378.75)">
<stop stop-color="#2F5DFF"/>
<stop offset="1" stop-color="#2F5DFF" stop-opacity="0"/>
</radialGradient>
<radialGradient id="paint25_diamond_365_2118" cx="0" cy="0" r="1" gradientUnits="userSpaceOnUse" gradientTransform="translate(1156.79 435.499) rotate(15) scale(1354.22 1378.75)">
<stop stop-color="#2F5DFF"/>
<stop offset="1" stop-color="#2F5DFF" stop-opacity="0"/>
</radialGradient>
<radialGradient id="paint26_diamond_365_2118" cx="0" cy="0" r="1" gradientUnits="userSpaceOnUse" gradientTransform="translate(1156.79 435.499) rotate(12) scale(1354.22 1378.75)">
<stop stop-color="#2F5DFF"/>
<stop offset="1" stop-color="#2F5DFF" stop-opacity="0"/>
</radialGradient>
<radialGradient id="paint27_diamond_365_2118" cx="0" cy="0" r="1" gradientUnits="userSpaceOnUse" gradientTransform="translate(1156.78 435.499) rotate(9) scale(1354.22 1378.75)">
<stop stop-color="#2F5DFF"/>
<stop offset="1" stop-color="#2F5DFF" stop-opacity="0"/>
</radialGradient>
<radialGradient id="paint28_diamond_365_2118" cx="0" cy="0" r="1" gradientUnits="userSpaceOnUse" gradientTransform="translate(1156.79 435.5) rotate(6) scale(1354.22 1378.75)">
<stop stop-color="#2F5DFF"/>
<stop offset="1" stop-color="#2F5DFF" stop-opacity="0"/>
</radialGradient>
<radialGradient id="paint29_diamond_365_2118" cx="0" cy="0" r="1" gradientUnits="userSpaceOnUse" gradientTransform="translate(1156.79 435.499) rotate(3) scale(1354.22 1378.75)">
<stop stop-color="#2F5DFF"/>
<stop offset="1" stop-color="#2F5DFF" stop-opacity="0"/>
</radialGradient>
<radialGradient id="paint30_diamond_365_2118" cx="0" cy="0" r="1" gradientUnits="userSpaceOnUse" gradientTransform="translate(1156.78 435.499) scale(1354.22 1378.75)">
<stop stop-color="#2F5DFF"/>
<stop offset="1" stop-color="#2F5DFF" stop-opacity="0"/>
</radialGradient>
</defs>
</svg>
