<svg xmlns="http://www.w3.org/2000/svg" width="134" height="26" viewBox="0 0 134 26" fill="none">
<path d="M33.4902 21.1484V4.36067H41.1703C43.1079 4.36067 44.514 4.85242 45.3886 5.8359C46.2852 6.87978 46.7542 8.23222 46.6997 9.61589C46.6972 10.6481 46.4063 11.6585 45.8608 12.5297C45.3173 13.4365 44.4765 14.1201 43.486 14.4607L46.6997 21.1519H43.1073L40.0121 14.8929H36.6799V21.1519L33.4902 21.1484ZM36.6799 11.8196H41.2176C41.5217 11.8471 41.8281 11.8054 42.1143 11.6975C42.4005 11.5895 42.6594 11.4181 42.8721 11.1957C43.2288 10.7497 43.4134 10.1873 43.3915 9.61328C43.411 9.04871 43.2307 8.4957 42.8832 8.0544C42.6696 7.83005 42.409 7.65746 42.1206 7.54944C41.8322 7.44143 41.5235 7.40077 41.2176 7.4305H36.6799V11.8196ZM56.8843 21.1484V19.9974C56.4941 20.4785 55.9977 20.8595 55.4353 21.1094C54.8729 21.3594 54.2604 21.4713 53.6474 21.436C52.5361 21.4647 51.4578 21.0517 50.6423 20.2849C50.1964 19.7943 49.8567 19.2143 49.6451 18.5823C49.4335 17.9503 49.3546 17.2804 49.4137 16.6156V8.89353H52.4857V15.6083C52.4281 16.3602 52.606 17.1113 52.994 17.7545C53.1858 17.9905 53.4311 18.176 53.7089 18.2949C53.9867 18.4139 54.2888 18.4628 54.5893 18.4376C56.1175 18.4376 56.8817 17.5102 56.8817 15.6553V8.89266H59.9537V21.1476L56.8843 21.1484ZM67.4939 21.436C66.5329 21.4395 65.5822 21.2351 64.7052 20.8365C63.8975 20.4964 63.1954 19.9412 62.6729 19.2297L64.7086 17.4791C65.068 17.8826 65.5045 18.2076 65.9916 18.4344C66.4787 18.6612 67.0062 18.7851 67.542 18.7984C68.7549 18.7984 69.3613 18.4388 69.3613 17.7196C69.3597 17.5506 69.3141 17.3849 69.229 17.2395C69.144 17.0942 69.0225 16.9742 68.8771 16.8918C68.3311 16.5692 67.7561 16.3002 67.1599 16.0884C66.0193 15.763 64.953 15.2128 64.0217 14.4694C63.6911 14.1662 63.4305 13.7926 63.2587 13.3754C63.0868 12.9582 63.0078 12.5075 63.0275 12.0557C63.012 11.562 63.1185 11.0722 63.3371 10.6308C63.5557 10.1895 63.8796 9.81065 64.2793 9.52876C65.2018 8.88631 66.3037 8.56244 67.4217 8.6051C68.257 8.57513 69.0881 8.73662 69.8533 9.07757C70.6186 9.41851 71.2982 9.93013 71.8418 10.5744L69.7863 12.2771C69.162 11.6329 68.3137 11.2628 67.4235 11.2462C66.3995 11.2462 65.8874 11.55 65.8874 12.1577C65.8874 12.6695 66.6751 13.165 68.2503 13.6442C69.3146 13.9558 70.3096 14.473 71.1807 15.1674C71.5322 15.4858 71.8083 15.8808 71.9882 16.3227C72.1681 16.7647 72.2472 17.2422 72.2196 17.7196C72.2448 18.2483 72.1416 18.7752 71.9191 19.254C71.6967 19.7328 71.3617 20.1487 70.9437 20.4653C69.9287 21.1617 68.7173 21.5026 67.4939 21.436ZM75.174 21.1484V5.27213L78.246 3.8335V10.0446C78.6384 9.56619 79.1352 9.18711 79.6971 8.93741C80.2589 8.6877 80.8703 8.57423 81.4829 8.60598C82.5949 8.57348 83.6756 8.982 84.4957 9.74486C84.9399 10.2387 85.2776 10.8213 85.4871 11.4552C85.6966 12.0892 85.7733 12.7606 85.7123 13.4264V21.1484H82.6403V14.3134C82.6403 12.5068 81.9394 11.6035 80.5376 11.6035C79.0093 11.6035 78.2452 12.4908 78.2452 14.2655V21.1493L75.174 21.1484ZM95.9922 21.1484V20.2614C95.5777 20.6621 95.0872 20.9729 94.5504 21.1748C94.0137 21.3767 93.4421 21.4656 92.8704 21.436C91.7128 21.4866 90.5761 21.1119 89.6687 20.3808C89.2503 20.0103 88.921 19.5476 88.7059 19.028C88.4909 18.5084 88.3958 17.9458 88.428 17.3833C88.3949 16.8004 88.5063 16.2184 88.7519 15.6905C88.9976 15.1626 89.3698 14.7056 89.8344 14.3614C90.8261 13.657 92.015 13.2955 93.225 13.3305C94.1775 13.3087 95.1226 13.5056 95.9896 13.9065V13.2826C95.9896 11.9878 95.265 11.3403 93.8157 11.3403C92.4768 11.3446 91.1723 11.7709 90.0825 12.5602L89.1381 10.042C90.602 9.06432 92.3247 8.5625 94.0767 8.60336C94.6534 8.59603 95.2292 8.65242 95.7939 8.77154C96.3361 8.90243 96.8567 9.11259 97.3394 9.39544C97.8992 9.72696 98.3354 10.237 98.58 10.8463C98.8945 11.6338 99.0434 12.4794 99.017 13.3288V21.1467L95.9922 21.1484ZM93.4628 18.7025C94.4023 18.7111 95.3085 18.3501 95.9914 17.6952V16.376C95.276 16.0941 94.5135 15.9556 93.7462 15.9682C93.1673 15.9434 92.5912 16.0631 92.0685 16.3167C91.8708 16.4116 91.7049 16.5634 91.5915 16.7532C91.4781 16.943 91.4221 17.1624 91.4305 17.3841C91.4288 17.5771 91.4769 17.7672 91.5702 17.9354C91.6634 18.1036 91.7985 18.244 91.962 18.3426C92.417 18.6086 92.9387 18.7337 93.4628 18.7025ZM107.854 21.436C107.38 21.4655 106.906 21.3732 106.477 21.1677C106.047 20.9623 105.676 20.6503 105.396 20.2605V21.1476H102.324V5.2486L105.396 3.8335V9.78058C105.704 9.39203 106.097 9.08292 106.545 8.87859C106.993 8.67426 107.482 8.58054 107.972 8.6051C108.665 8.5907 109.352 8.74074 109.978 9.04329C110.604 9.34584 111.152 9.79255 111.578 10.3478C112.573 11.6864 113.071 13.338 112.985 15.0123C113.09 16.7095 112.603 18.3902 111.611 19.7604C111.154 20.3147 110.578 20.7544 109.926 21.0451C109.274 21.3358 108.565 21.4696 107.854 21.436ZM107.499 18.4385C107.848 18.454 108.196 18.3784 108.508 18.2189C108.821 18.0593 109.087 17.8211 109.283 17.527C109.74 16.772 109.958 15.8933 109.909 15.0088C109.965 14.1209 109.746 13.2374 109.283 12.4818C109.081 12.197 108.812 11.9681 108.5 11.8159C108.189 11.6637 107.844 11.5931 107.499 11.6105C107.093 11.5819 106.686 11.6595 106.318 11.8359C105.95 12.0122 105.633 12.2814 105.396 12.6178V17.4582C105.637 17.7879 105.956 18.0506 106.324 18.222C106.691 18.3933 107.096 18.4678 107.499 18.4385ZM116.053 21.1484V5.29652L119.125 3.8335V21.1484H116.053ZM127.844 21.436C127.074 21.4753 126.305 21.3433 125.591 21.0492C124.877 20.755 124.234 20.3059 123.709 19.7333C122.636 18.4082 122.096 16.7208 122.197 15.0088C122.107 13.3107 122.651 11.6406 123.721 10.3322C124.242 9.75547 124.88 9.30186 125.593 9.00342C126.305 8.70498 127.073 8.569 127.843 8.6051C128.549 8.57676 129.254 8.69274 129.916 8.94615C130.577 9.19956 131.182 9.58525 131.694 10.0803C132.218 10.6568 132.621 11.3361 132.877 12.0764C133.133 12.8167 133.237 13.6023 133.183 14.3849C133.192 15.0018 133.161 15.6187 133.089 16.2313H125.222C125.236 16.5746 125.317 16.9116 125.462 17.2226C125.606 17.5335 125.809 17.8121 126.061 18.042C126.554 18.4805 127.19 18.7158 127.845 18.7016C128.347 18.7144 128.844 18.6058 129.296 18.3847C129.748 18.1636 130.141 17.8365 130.444 17.4303L132.333 19.3726C131.793 20.0455 131.107 20.5821 130.328 20.9402C129.549 21.2982 128.699 21.468 127.845 21.436H127.844ZM125.245 13.5937H130.184C130.126 12.9678 129.855 12.382 129.416 11.9381C128.991 11.5353 128.426 11.3198 127.845 11.3386C127.526 11.2987 127.202 11.3268 126.894 11.4209C126.586 11.515 126.3 11.6731 126.056 11.8852C125.811 12.0973 125.613 12.3588 125.474 12.6529C125.334 12.947 125.256 13.2674 125.245 13.5937Z" fill="white"/>
<g style="mix-blend-mode:multiply">
<path fillRule="evenodd" clipRule="evenodd" d="M11.3037 1.12973L26.2028 11.6288C26.4166 11.7793 26.5912 11.9801 26.7119 12.214C26.8325 12.4479 26.8955 12.708 26.8955 12.9721C26.8955 13.2361 26.8325 13.4962 26.7119 13.7301C26.5912 13.964 26.4166 14.1648 26.2028 14.3153L11.3037 24.8152C11.062 24.9858 10.7789 25.0859 10.4852 25.1046C10.1914 25.1233 9.8982 25.06 9.6374 24.9215C9.3766 24.783 9.15818 24.5747 9.00586 24.319C8.85355 24.0634 8.77316 23.7703 8.77344 23.4716V2.47251C8.77332 2.17386 8.85382 1.88088 9.0062 1.62538C9.15858 1.36989 9.37701 1.16164 9.63778 1.02325C9.89856 0.884861 10.1917 0.821619 10.4854 0.840391C10.7791 0.859163 11.0621 0.959231 11.3037 1.12973Z" fill="white"/>
</g>
<g style="mix-blend-mode:multiply">
<path fillRule="evenodd" clipRule="evenodd" d="M3.24301 2.74319L15.9733 11.6259C16.1888 11.7761 16.3651 11.9773 16.4869 12.212C16.6086 12.4468 16.6723 12.7082 16.6723 12.9735C16.6723 13.2388 16.6086 13.5001 16.4869 13.7349C16.3651 13.9697 16.1888 14.1709 15.9733 14.3211L3.24301 23.2029C3.00114 23.3719 2.71835 23.4706 2.4252 23.4884C2.13206 23.5061 1.83972 23.4421 1.5798 23.3034C1.31988 23.1647 1.10228 22.9565 0.950513 22.7014C0.79875 22.4462 0.718607 22.1538 0.718751 21.8558V4.09119C0.718451 3.79308 0.79848 3.50057 0.950179 3.24529C1.10188 2.99002 1.31947 2.7817 1.57942 2.64288C1.83937 2.50407 2.13177 2.44003 2.42499 2.45771C2.71821 2.47539 3.00108 2.57411 3.24301 2.74319Z" fill="white"/>
</g>
<g style="mix-blend-mode:multiply">
<path fillRule="evenodd" clipRule="evenodd" d="M8.77148 19.3433V6.60083L15.9715 11.6247C16.187 11.7749 16.3633 11.9761 16.485 12.2109C16.6068 12.4456 16.6704 12.707 16.6704 12.9723C16.6704 13.2376 16.6068 13.4989 16.485 13.7337C16.3633 13.9685 16.187 14.1697 15.9715 14.3199L8.77148 19.3433Z" fill="black"/>
</g>
</svg>